<svg width="340" height="45" viewBox="0 0 340 45" fill="none" xmlns="http://www.w3.org/2000/svg">
<path d="M8.68579 31.8351L0 22.8989L8.68579 13.9628H15.6982L7.01238 22.8989L15.6982 31.8351H8.68579Z" fill="#3EBE96"/>
<path d="M28.4081 10.4122C31.3299 10.4122 33.8932 10.984 36.0978 12.1277C38.329 13.2713 40.0423 14.9069 41.2376 17.0346C42.4594 19.1356 43.0703 21.5824 43.0703 24.375C43.0703 27.1676 42.4594 29.6144 41.2376 31.7154C40.0423 33.7899 38.329 35.3989 36.0978 36.5426C33.8932 37.6862 31.3299 38.258 28.4081 38.258H18.6864V10.4122H28.4081ZM28.2089 33.5106C31.1307 33.5106 33.3885 32.7128 34.9822 31.117C36.5759 29.5213 37.3728 27.2739 37.3728 24.375C37.3728 21.4761 36.5759 19.2154 34.9822 17.5931C33.3885 15.9441 31.1307 15.1197 28.2089 15.1197H24.2644V33.5106H28.2089Z" fill="#73838C"/>
<path d="M45.8114 27.1277C45.8114 24.8936 46.2497 22.9122 47.1262 21.1835C48.0294 19.4548 49.2379 18.125 50.752 17.1942C52.2926 16.2633 54.0058 15.7979 55.8917 15.7979C57.5386 15.7979 58.9729 16.1303 60.1948 16.7952C61.4432 17.4601 62.4393 18.2979 63.183 19.3085V16.1569H68.8009V38.258H63.183V35.0266C62.4658 36.0638 61.4697 36.9282 60.1948 37.6197C58.9464 38.2846 57.4987 38.617 55.8519 38.617C53.9925 38.617 52.2926 38.1383 50.752 37.1808C49.2379 36.2234 48.0294 34.8803 47.1262 33.1516C46.2497 31.3963 45.8114 29.3883 45.8114 27.1277ZM63.183 27.2074C63.183 25.8511 62.9174 24.6941 62.3861 23.7367C61.8549 22.7527 61.1377 22.008 60.2346 21.5027C59.3315 20.9707 58.362 20.7048 57.3261 20.7048C56.2901 20.7048 55.3339 20.9574 54.4574 21.4628C53.5808 21.9681 52.8636 22.7128 52.3058 23.6968C51.7746 24.6543 51.509 25.7979 51.509 27.1277C51.509 28.4574 51.7746 29.6277 52.3058 30.6383C52.8636 31.6223 53.5808 32.3803 54.4574 32.9122C55.3605 33.4441 56.3167 33.7101 57.3261 33.7101C58.362 33.7101 59.3315 33.4574 60.2346 32.9521C61.1377 32.4202 61.8549 31.6755 62.3861 30.7181C62.9174 29.734 63.183 28.5638 63.183 27.2074Z" fill="#73838C"/>
<path d="M83.4525 33.1117L89.0305 16.1569H94.9672L86.7993 38.258H80.026L71.898 16.1569H77.8745L83.4525 33.1117Z" fill="#73838C"/>
<path d="M100.929 13.5239C99.9462 13.5239 99.1228 13.2181 98.4587 12.6064C97.8212 11.9681 97.5025 11.1835 97.5025 10.2527C97.5025 9.32181 97.8212 8.55053 98.4587 7.93883C99.1228 7.30053 99.9462 6.98138 100.929 6.98138C101.912 6.98138 102.722 7.30053 103.359 7.93883C104.023 8.55053 104.355 9.32181 104.355 10.2527C104.355 11.1835 104.023 11.9681 103.359 12.6064C102.722 13.2181 101.912 13.5239 100.929 13.5239ZM103.678 16.1569V38.258H98.1001V16.1569H103.678Z" fill="#73838C"/>
<path d="M107.755 27.1277C107.755 24.8936 108.193 22.9122 109.07 21.1835C109.973 19.4548 111.195 18.125 112.735 17.1942C114.276 16.2633 115.989 15.7979 117.875 15.7979C119.309 15.7979 120.677 16.117 121.979 16.7553C123.28 17.367 124.316 18.1915 125.087 19.2287V8.7367H130.744V38.258H125.087V34.9867C124.396 36.0771 123.427 36.9548 122.178 37.6197C120.93 38.2846 119.482 38.617 117.835 38.617C115.976 38.617 114.276 38.1383 112.735 37.1808C111.195 36.2234 109.973 34.8803 109.07 33.1516C108.193 31.3963 107.755 29.3883 107.755 27.1277ZM125.126 27.2074C125.126 25.8511 124.861 24.6941 124.33 23.7367C123.798 22.7527 123.081 22.008 122.178 21.5027C121.275 20.9707 120.305 20.7048 119.27 20.7048C118.234 20.7048 117.277 20.9574 116.401 21.4628C115.524 21.9681 114.807 22.7128 114.249 23.6968C113.718 24.6543 113.452 25.7979 113.452 27.1277C113.452 28.4574 113.718 29.6277 114.249 30.6383C114.807 31.6223 115.524 32.3803 116.401 32.9122C117.304 33.4441 118.26 33.7101 119.27 33.7101C120.305 33.7101 121.275 33.4574 122.178 32.9521C123.081 32.4202 123.798 31.6755 124.33 30.7181C124.861 29.734 125.126 28.5638 125.126 27.2074Z" fill="#73838C"/>
<path d="M143.375 37.859C141.568 37.859 139.948 37.5399 138.514 36.9016C137.079 36.2367 135.937 35.3457 135.087 34.2287C134.264 33.1117 133.812 31.875 133.733 30.5186H139.35C139.457 31.3697 139.868 32.0745 140.586 32.633C141.329 33.1915 142.246 33.4707 143.335 33.4707C144.397 33.4707 145.221 33.258 145.805 32.8324C146.416 32.4069 146.721 31.8617 146.721 31.1968C146.721 30.4787 146.35 29.9468 145.606 29.6011C144.889 29.2287 143.733 28.8298 142.139 28.4043C140.493 28.0053 139.138 27.5931 138.075 27.1675C137.04 26.742 136.136 26.0904 135.366 25.2128C134.622 24.3351 134.251 23.1516 134.251 21.6622C134.251 20.4388 134.596 19.3218 135.286 18.3112C136.004 17.3005 137.013 16.5027 138.315 15.9176C139.643 15.3324 141.197 15.0399 142.976 15.0399C145.606 15.0399 147.704 15.7048 149.271 17.0346C150.839 18.3378 151.702 20.1064 151.861 22.3404H146.522C146.443 21.4628 146.071 20.7713 145.407 20.266C144.769 19.734 143.906 19.4681 142.817 19.4681C141.807 19.4681 141.024 19.6543 140.466 20.0266C139.935 20.3989 139.669 20.9176 139.669 21.5824C139.669 22.3271 140.041 22.8989 140.785 23.2979C141.529 23.6702 142.684 24.0558 144.251 24.4548C145.845 24.8537 147.16 25.266 148.196 25.6915C149.232 26.117 150.121 26.7819 150.865 27.6862C151.635 28.5638 152.034 29.734 152.06 31.1968C152.06 32.4734 151.702 33.617 150.985 34.6277C150.294 35.6383 149.285 36.4362 147.957 37.0213C146.655 37.5798 145.128 37.859 143.375 37.859Z" fill="#3EBE96"/>
<path d="M155.205 26.3697C155.205 24.1356 155.643 22.1543 156.52 20.4255C157.423 18.6968 158.631 17.367 160.145 16.4362C161.686 15.5053 163.399 15.0399 165.285 15.0399C166.932 15.0399 168.366 15.3723 169.588 16.0372C170.837 16.7021 171.833 17.5399 172.576 18.5505V15.3989H178.194V37.5H172.576V34.2686C171.859 35.3058 170.863 36.1702 169.588 36.8617C168.34 37.5266 166.892 37.859 165.245 37.859C163.386 37.859 161.686 37.3803 160.145 36.4229C158.631 35.4654 157.423 34.1223 156.52 32.3936C155.643 30.6383 155.205 28.6303 155.205 26.3697ZM172.576 26.4495C172.576 25.0931 172.311 23.9362 171.78 22.9787C171.248 21.9947 170.531 21.25 169.628 20.7447C168.725 20.2128 167.755 19.9468 166.72 19.9468C165.684 19.9468 164.727 20.1995 163.851 20.7048C162.974 21.2101 162.257 21.9548 161.699 22.9388C161.168 23.8963 160.902 25.0399 160.902 26.3697C160.902 27.6995 161.168 28.8697 161.699 29.8803C162.257 30.8644 162.974 31.6223 163.851 32.1543C164.754 32.6862 165.71 32.9521 166.72 32.9521C167.755 32.9521 168.725 32.6995 169.628 32.1941C170.531 31.6622 171.248 30.9175 171.78 29.9601C172.311 28.9761 172.576 27.8058 172.576 26.4495Z" fill="#3EBE96"/>
<path d="M195.874 15.0798C198.504 15.0798 200.629 15.9176 202.249 17.5931C203.869 19.242 204.679 21.5559 204.679 24.5346V37.5H199.101V25.2925C199.101 23.5372 198.663 22.1941 197.787 21.2633C196.91 20.3058 195.715 19.8271 194.201 19.8271C192.66 19.8271 191.438 20.3058 190.535 21.2633C189.659 22.1941 189.22 23.5372 189.22 25.2925V37.5H183.642V15.3989H189.22V18.1516C189.964 17.1941 190.907 16.4495 192.049 15.9176C193.218 15.359 194.493 15.0798 195.874 15.0798Z" fill="#3EBE96"/>
<path d="M208.549 26.4495C208.549 24.1622 209.014 22.1676 209.944 20.4654C210.874 18.7367 212.162 17.4069 213.809 16.4761C215.456 15.5186 217.341 15.0399 219.466 15.0399C222.202 15.0399 224.46 15.7314 226.24 17.1144C228.046 18.4707 229.255 20.3856 229.865 22.859H223.849C223.53 21.9016 222.986 21.1569 222.216 20.625C221.472 20.0665 220.542 19.7872 219.427 19.7872C217.833 19.7872 216.571 20.3723 215.642 21.5426C214.712 22.6862 214.247 24.3218 214.247 26.4495C214.247 28.5505 214.712 30.1862 215.642 31.3564C216.571 32.5 217.833 33.0718 219.427 33.0718C221.684 33.0718 223.159 32.0612 223.849 30.0399H229.865C229.255 32.4335 228.046 34.3351 226.24 35.7447C224.434 37.1543 222.176 37.859 219.466 37.859C217.341 37.859 215.456 37.3936 213.809 36.4628C212.162 35.5053 210.874 34.1755 209.944 32.4734C209.014 30.7447 208.549 28.7367 208.549 26.4495Z" fill="#3EBE96"/>
<path d="M246.383 15.0798C248.056 15.0798 249.544 15.4521 250.845 16.1968C252.147 16.9149 253.156 17.992 253.873 19.4282C254.617 20.8378 254.989 22.5399 254.989 24.5346V37.5H249.411V25.2925C249.411 23.5372 248.973 22.1941 248.096 21.2633C247.22 20.3058 246.024 19.8271 244.51 19.8271C242.97 19.8271 241.748 20.3058 240.845 21.2633C239.968 22.1941 239.53 23.5372 239.53 25.2925V37.5H233.952V7.97872H239.53V18.1516C240.247 17.1941 241.203 16.4495 242.399 15.9176C243.594 15.359 244.922 15.0798 246.383 15.0798Z" fill="#3EBE96"/>
<path d="M280.813 25.9707C280.813 26.7686 280.759 27.4867 280.653 28.125H264.517C264.65 29.7207 265.207 30.9707 266.19 31.875C267.173 32.7793 268.382 33.2314 269.816 33.2314C271.888 33.2314 273.362 32.3404 274.238 30.5585H280.255C279.617 32.6862 278.395 34.4415 276.589 35.8245C274.783 37.1808 272.565 37.859 269.935 37.859C267.81 37.859 265.898 37.3936 264.198 36.4628C262.525 35.5053 261.21 34.1622 260.254 32.4335C259.324 30.7048 258.859 28.7101 258.859 26.4495C258.859 24.1622 259.324 22.1543 260.254 20.4255C261.183 18.6968 262.485 17.367 264.158 16.4362C265.832 15.5053 267.757 15.0399 269.935 15.0399C272.034 15.0399 273.906 15.492 275.553 16.3963C277.227 17.3005 278.515 18.5904 279.418 20.266C280.348 21.9149 280.813 23.8165 280.813 25.9707ZM275.035 24.375C275.009 22.9388 274.491 21.7952 273.481 20.9441C272.472 20.0665 271.237 19.6277 269.776 19.6277C268.395 19.6277 267.226 20.0532 266.27 20.9043C265.34 21.7287 264.769 22.8856 264.557 24.375H275.035Z" fill="#3EBE96"/>
<path d="M289.984 32.9122H299.825V37.5H283.649V32.992L293.291 19.9867H283.689V15.3989H299.706V19.9069L289.984 32.9122Z" fill="#3EBE96"/>
<path d="M319.029 0L308.272 45H302.813L313.571 0H319.029Z" fill="#3EBE96"/>
<path d="M324.262 14.641H331.314L340 23.5771L331.314 32.5133H324.262L332.988 23.5771L324.262 14.641Z" fill="#3EBE96"/>
</svg>
